<?xml version="1.0" encoding="UTF-8" standalone="no"?>
<!-- Created with Inkscape (http://www.inkscape.org/) -->

<svg
   width="691"
   height="422"
   viewBox="0 0 182.8265 111.654"
   version="1.1"
   id="svg1"
   xml:space="preserve"
   inkscape:version="1.4.2 (f4327f4, 2025-05-13)"
   sodipodi:docname="dibujo.svg"
   xmlns:inkscape="http://www.inkscape.org/namespaces/inkscape"
   xmlns:sodipodi="http://sodipodi.sourceforge.net/DTD/sodipodi-0.dtd"
   xmlns="http://www.w3.org/2000/svg"
   xmlns:svg="http://www.w3.org/2000/svg"><sodipodi:namedview
     id="namedview1"
     pagecolor="#ffffff"
     bordercolor="#000000"
     borderopacity="0.25"
     inkscape:showpageshadow="2"
     inkscape:pageopacity="0.0"
     inkscape:pagecheckerboard="0"
     inkscape:deskcolor="#d1d1d1"
     inkscape:document-units="px"
     inkscape:zoom="1.0396254"
     inkscape:cx="396.77752"
     inkscape:cy="323.19333"
     inkscape:window-width="1927"
     inkscape:window-height="1236"
     inkscape:window-x="1952"
     inkscape:window-y="25"
     inkscape:window-maximized="0"
     inkscape:current-layer="layer1" /><defs
     id="defs1" /><g
     inkscape:label="Capa 1"
     inkscape:groupmode="layer"
     id="layer1"><path
       style="fill:#087ca2"
       d="m 0.17068754,110.52823 0,-1.02894 0.44097223,-0.17793 0.44097223,-0.17794 -0.44097223,-0.0279 -0.44097223,-0.0279 v -0.57837 -0.57838 l 3.96875006,0.22548 3.9687501,0.22548 0.8709348,0.0883 0.8709349,0.0883 0.1141829,-0.56082 0.1141827,-0.56082 -1.4500151,-1.73224 -1.4500153,-1.73223 -2.18908,-4.409722 L 2.8002327,95.152996 1.7547474,92.06619 0.70926216,88.979384 H 0.43997485 0.17068754 l 0,-0.636584 0,-0.636585 1.49930556,-0.0747 1.4993056,-0.0747 1.002785,-0.205864 1.002785,-0.205864 -0.1245862,0.652561 -0.1245862,0.652562 -1.319171,0.326801 -1.3191711,0.326801 0,0.335015 0,0.335016 1.2770377,3.218739 1.2770376,3.218739 1.9093581,3.75564 1.909358,3.755641 1.4379104,1.63355 1.437911,1.63355 1.637499,1.12884 1.6375,1.12883 2.822222,1.14005 2.822222,1.14005 -1.726871,0.0148 -1.726872,0.0148 -2.567093,-1.23472 -2.567093,-1.23472 h -0.203952 -0.203952 v 1.23472 1.23472 H 10.93041 10.401243 v -0.51675 -0.51676 l -0.7204905,-0.38559 -0.7204908,-0.3856 -1.3079815,0.1086 -1.3079815,0.1086 -0.1127304,0.79375 -0.1127305,0.79375 H 3.1447627 0.17068754 Z m 35.27777846,0.44626 1.5875,-0.53276 2.822222,-1.35245 2.822222,-1.35244 2.312181,-1.75355 2.312181,-1.75354 1.712099,-1.89254 1.712098,-1.89255 1.00401,-1.570272 1.004011,-1.570275 0.736646,-1.957503 0.736647,-1.957503 0.609908,-2.469445 0.609908,-2.469444 2.245408,-0.2169 2.245407,-0.2169 0.816554,-0.9493 0.816554,-0.9493 v -0.873603 -0.873604 l -0.485036,-1.160853 -0.485036,-1.160854 -1.169656,-1.332165 -1.169656,-1.332164 -1.875102,-1.058243 -1.875103,-1.058242 -0.160199,-0.758937 -0.160198,-0.758936 -0.537835,-6.844263 -0.537834,-6.844263 -0.163339,-0.163339 -0.163339,-0.163339 -1.185349,0.732586 -1.185349,0.732586 -2.082325,0.542377 -2.082325,0.542377 -2.307132,-0.0054 -2.307132,-0.0054 -0.486168,-0.307934 -0.486169,-0.307934 0.242405,-0.39222 0.242405,-0.39222 h 2.737373 l 2.737373,0 1.770188,-0.525689 1.770188,-0.525689 1.407115,-1.01931 1.407116,-1.019309 0.791824,-1.840644 0.791824,-1.840645 -0.184352,-0.184351 -0.184351,-0.184351 -1.752151,1.286197 -1.75215,1.286196 -2.056791,0.708915 -2.05679,0.708914 -2.195029,0.01799 -2.195029,0.01799 L 40.838159,59.325656 39.50541,58.891277 38.020454,57.876866 36.535497,56.862454 35.104249,54.863739 33.673,52.865024 33.149622,51.102618 32.626244,49.340212 V 47.714471 46.08873 l 0.526227,-2.020323 0.526227,-2.020324 0.855185,-1.669767 0.855185,-1.669767 1.529005,-1.481403 1.529004,-1.481402 2.028472,-0.925709 2.028473,-0.925709 0,-0.441209 v -0.441208 l -1.219496,-1.715247 -1.219495,-1.715246 -0.465588,-0.260556 -0.465588,-0.260556 -5.023727,1.386545 -5.023727,1.386545 -6.084896,1.917052 -6.084897,1.917052 -4.756988,1.822965 -4.7569879,1.822965 -2.0863905,0.675943 -2.0863905,0.675943 -1.176804,-0.38838 -1.17680399,-0.388381 0,-1.195088 0,-1.195088 1.05409039,-1.200543 1.0540903,-1.200542 4.8549375,-2.488298 4.8549377,-2.488298 3.880555,-1.571769 3.880556,-1.571769 3.351389,-1.075881 3.351389,-1.075882 2.104108,-0.586794 2.104108,-0.586794 -0.532905,-0.298229 -0.532906,-0.298229 -3.136709,-0.417418 -3.13671,-0.417419 -2.315048,0.234429 -2.315049,0.234428 -2.088458,0.538264 -2.088457,0.538263 -2.144876,1.078257 -2.144876,1.078256 -2.5842676,1.781233 -2.5842676,1.781234 -2.7955936,2.987996 -2.79559366,2.987997 0,-0.798341 0,-0.79834 1.25676746,-1.71206 1.2567674,-1.71206 2.6289317,-2.114867 2.6289318,-2.114867 2.4656691,-1.464828 2.46567,-1.464827 2.854604,-0.988458 2.854603,-0.988459 2.876667,-0.236899 2.876667,-0.236899 2.998611,0.408098 2.998611,0.408097 2.200122,0.547198 2.200123,0.547198 5.737378,-0.957935 5.737377,-0.957935 1.407506,0.188458 1.407506,0.188458 0.620966,0.766861 0.620967,0.766861 v 0.795287 0.795288 l -0.736705,0.936567 -0.736704,0.936568 -1.053307,0.544687 -1.053308,0.544686 -2.516912,0.639177 -2.516913,0.639178 -0.106824,0.320471 -0.106823,0.32047 1.595572,2.192784 1.595571,2.192784 2.024427,0.0077 2.024426,0.0077 1.411111,0.643261 1.411111,0.643261 1.133247,0.956676 1.133247,0.956676 1.213382,2.008287 1.213382,2.008288 0.563788,1.916113 0.563787,1.916113 v 2.349348 2.349348 l -0.51027,1.695501 -0.510271,1.695501 -0.236092,1.976538 -0.236091,1.976539 -0.716148,1.69419 -0.716148,1.69419 0.423902,5.890532 0.423901,5.890533 0.203711,1.188031 0.203711,1.18803 1.628648,-0.221127 1.628647,-0.221126 1.671545,-0.552905 1.671545,-0.552905 0.177164,-0.286657 0.177164,-0.286657 -2.201487,-2.249312 -2.201486,-2.249313 -0.861704,-1.633378 -0.861703,-1.633378 1.49732,-1.712707 1.49732,-1.712707 2.864992,-3.527778 2.864993,-3.527778 2.888008,-4.409723 2.888007,-4.409722 0.648395,-1.135674 0.648394,-1.135674 -0.178118,-0.178119 -0.178119,-0.178119 -3.474872,-0.387471 -3.474872,-0.387471 -3.207632,-0.822304 -3.207631,-0.822304 -0.970139,-0.378117 -0.970139,-0.378118 v -0.486367 -0.486366 l 1.544195,-3.314726 1.544196,-3.314726 1.298338,-3.478408 1.298338,-3.478408 1.169762,-4.282704 1.169762,-4.282703 0.618088,-3.454108 0.618088,-3.4541072 -0.214739,-0.2147387 -0.214738,-0.2147387 -3.798284,1.6081276 -3.798284,1.608128 -3.351389,1.051853 -3.351389,1.051853 -1.122151,0.237791 -1.122152,0.237792 -0.42035,0.50649 -0.42035,0.506491 h -0.479249 -0.47925 l -0.16373,-0.79375 -0.16373,-0.79375 -0.40211,-2.983259 L 45.971894,8.047585 45.100028,4.6808436 44.228161,1.3141023 44.091903,0.69674111 43.955644,0.07937997 l 0.516474,0 0.516474,0 0.341375,0.79375004 0.341375,0.79374999 0.851064,3.3513891 0.851065,3.351389 0.250438,2.0179169 0.250438,2.017917 0.521965,0.433193 0.521966,0.433193 2.525511,-0.642504 2.52551,-0.642504 3.641687,-1.376148 3.641687,-1.3761484 2.434923,-1.2262078 2.434923,-1.2262077 0.500231,0 0.50023,0 0.159648,0.4409722 0.159647,0.4409723 -0.614783,3.5277784 -0.614784,3.527777 0.256053,0.274702 0.256052,0.274701 0.854188,-0.669236 0.854188,-0.669235 3.746874,-2.313735 3.746875,-2.3137339 3.837848,-1.9177585 3.837847,-1.9177585 3.213302,-1.2642032 3.213302,-1.2642031 3.489476,-0.8719751 3.489476,-0.8719752 2.53702,-0.38154486 2.537021,-0.38154488 h 2.79663 2.79663 l 3.07414,0.53608593 3.07415,0.53608591 2.7047,1.0447095 2.70471,1.0447095 2.26043,1.3296214 2.26043,1.3296214 2.77196,2.5992792 2.77196,2.5992794 1.98828,2.988204 1.98828,2.988204 1.37977,3.200407 1.37978,3.200407 0.86133,3.206555 0.86134,3.206554 0.52821,3.026613 0.52821,3.026613 0.37097,5.440054 0.37096,5.440055 -0.23671,2.910416 -0.23671,2.910417 h 0.52402 0.52401 l 0.92882,-1.403547 0.92883,-1.403548 V 50.039512 49.89007 l -1.0848,-0.378161 -1.08479,-0.378161 0.24715,-0.399908 0.24716,-0.399908 1.36202,0.217796 1.36202,0.217796 1.4159,-1.279177 1.41589,-1.279176 0,-0.475865 v -0.475865 l -1.03654,-1.634462 -1.03655,-1.634461 -0.37456,-1.746543 -0.37457,-1.746544 0,-1.517493 v -1.517493 l 0.40863,-1.199171 0.40863,-1.19917 1.97262,-3.486268 1.97262,-3.486268 1.5223,-1.706419 1.5223,-1.706419 2.18187,-1.067233 2.18186,-1.067234 2.46945,-0.537986 2.46944,-0.537987 2.64584,-0.903486 2.64583,-0.903487 1.76389,-0.496503 1.76389,-0.496504 3.59044,-0.0042 3.59045,-0.0042 2.75955,0.370923 2.75956,0.370923 0.61736,0.182017 0.61736,0.182016 V 28.545863 39.32591 l -0.9938,-0.19876 -0.9938,-0.19876 -3.15134,-0.420567 -3.15134,-0.420568 -3.35139,0.228057 -3.35139,0.228057 -2.99861,0.671789 -2.99861,0.671789 -3.175,1.117173 -3.175,1.117172 -3.175,1.501041 -3.175,1.501041 -1.85208,1.475096 -1.85209,1.475097 0,0.397781 v 0.397782 l 3.34116,-0.219473 3.34116,-0.219472 2.81802,-0.719506 2.81803,-0.719506 2.13994,-0.928067 2.13994,-0.928067 0.21113,0.211124 0.21112,0.211123 -0.19543,0.509275 -0.19542,0.509274 -2.84941,1.098847 -2.8494,1.098847 -2.53809,0.533903 -2.53808,0.533902 -3.893,0.153653 -3.89299,0.153653 -0.44545,0.609186 -0.44545,0.609187 0,0.197157 v 0.197157 l 3.79236,0.02623 3.79236,0.02623 2.02602,0.791948 2.02601,0.791949 2.10061,1.579059 2.10061,1.579059 1.38977,2.081186 1.38976,2.081186 0.43979,1.833248 0.43979,1.833248 -0.1924,2.507776 -0.19239,2.507776 -0.76232,2.029208 -0.76232,2.029207 -1.38719,1.754926 -1.38719,1.754926 -1.8428,1.241013 -1.8428,1.241012 -2.238,0.744761 -2.23801,0.744761 -2.54578,-0.128556 -2.54578,-0.128557 -2.39019,-1.176684 -2.39018,-1.176685 -2.27042,-2.123864 -2.27042,-2.123864 v 0.404953 0.404954 l 0.86784,1.712598 0.86784,1.712598 1.48542,1.271463 1.48542,1.271464 1.89331,0.708378 1.8933,0.708377 h 0.47274 0.47274 l 0.4357,0.524992 0.43571,0.524993 -0.53192,0.204117 -0.53192,0.204118 -1.5343,-0.413144 -1.5343,-0.413144 -1.35997,-0.693805 -1.35997,-0.693806 -1.60768,-1.474244 -1.60768,-1.474244 0.22249,3.175 0.2225,3.175001 0.69354,2.707722 0.69354,2.707722 1.08674,2.610469 1.08674,2.610468 1.81518,2.972088 1.81518,2.972091 3.20466,3.20465 3.20465,3.20465 2.92573,1.73424 2.92573,1.73423 -0.87045,0.10904 -0.87045,0.10904 -1.51529,-0.77304 -1.51529,-0.77304 -1.00786,-0.74515 -1.00787,-0.74514 -1.02194,1.23276 -1.02194,1.23276 -0.009,0.26458 -0.009,0.26458 h -0.52917 -0.52916 v -0.21259 l 0,-0.21259 0.94994,-1.68991 0.94995,-1.68992 -2.36623,-2.55575 -2.36623,-2.55574 -1.59301,-2.39623 -1.59301,-2.396236 -1.56181,-3.297001 -1.5618,-3.297001 -0.84068,-3.342265 -0.84068,-3.342265 h -0.29146 -0.29147 l -0.26203,0.881944 -0.26204,0.881945 -2.00766,6.35 -2.00766,6.35 -2.25762,5.765629 -2.25762,5.76563 0,0.49617 v 0.49618 h -5.99722 -5.99722 l -0.005,-0.61736 -0.005,-0.61736 -3.63913,-7.40833 -3.63913,-7.408336 -2.75707,-4.93889 -2.757058,-4.938889 -3.175505,-5.115278 -3.175505,-5.115278 -3.309012,-4.804468 -3.309012,-4.804468 -0.608024,-0.537155 -0.608024,-0.537154 -4.938889,-0.429839 -4.938889,-0.429838 -8.290278,-0.246357 -8.290278,-0.246356 -0.603183,0.503412 -0.603183,0.503413 0.707878,1.387555 0.707877,1.387554 1.659195,1.681404 1.659194,1.681404 1.027386,0.718926 1.027386,0.718926 -0.226142,0.589317 -0.226143,0.589318 -1.683188,0.732638 -1.683188,0.732638 -2.734028,0.548408 -2.734028,0.548408 0.0039,0.385324 0.0039,0.385324 2.094018,1.295981 2.094018,1.295982 1.25776,1.75071 1.25776,1.750709 1.867512,0.233331 1.867512,0.23333 2.876168,0.995925 2.876168,0.995926 2.62687,1.637256 2.626869,1.637256 1.812121,1.629253 1.812122,1.629253 1.595893,2.073983 1.595894,2.073984 1.382495,2.730783 1.382494,2.730785 0.665194,2.64583 0.665194,2.64584 0.243862,2.56016 0.243862,2.56017 -27.273694,-0.0275 -27.273694,-0.0275 z m 3.527778,0.0535 v -0.17639 h -0.176389 -0.176389 v 0.17639 0.17639 h 0.176389 0.176389 z m 80.368376,-15.78681 0.6913,-1.852083 1.47003,-4.586112 1.47002,-4.586111 1.41032,-5.459248 1.41032,-5.459249 -0.56454,-0.412807 -0.56455,-0.412808 -5.18661,-1.449708 -5.18661,-1.449707 -5.9129,-1.233098 -5.91289,-1.233098 -0.70169,0 h -0.70169 v 0.336688 0.336689 l 2.23482,3.455673 2.23482,3.455673 2.85596,4.809114 2.85596,4.809114 3.41683,6.391581 3.41683,6.391581 h 0.28649 0.28649 z m 33.41076,-16.797237 2.23509,-1.045926 1.66551,-1.52946 1.66551,-1.529461 0.97908,-2.062833 0.97907,-2.062833 0.40957,-2.42819 0.40957,-2.42819 -0.39166,-1.826251 -0.39166,-1.826251 -0.95237,-1.74982 -0.95238,-1.749821 -1.72321,-1.507429 -1.72322,-1.507429 -1.99055,-0.990434 -1.99054,-0.990434 -3.58439,-0.145414 -3.58438,-0.145413 -1.77001,0.587901 -1.77,0.587901 -1.45355,1.052946 -1.45355,1.052946 -1.05603,1.66119 -1.05603,1.66119 -0.73518,2.413953 -0.73519,2.413953 0.16595,2.58588 0.16595,2.58588 0.93607,1.913244 0.93606,1.913245 2.04811,1.953571 2.04812,1.953571 1.92125,0.975439 1.92124,0.975438 0.88195,0.292408 0.88194,0.292408 2.41438,-0.150774 2.41438,-0.150774 z m 0.098,-10.820657 -0.40778,-0.894976 0.5291,-0.529098 0.5291,-0.529097 0.56452,0.216628 0.56452,0.216627 0.17706,0.461391 0.17705,0.46139 -0.52256,0.746056 -0.52256,0.746055 h -0.34033 -0.34034 z m -24.9249,-7.042524 0.23808,-1.411111 0.43301,-5.291667 0.43301,-5.291667 -0.22701,-4.7625 -0.22702,-4.762501 -0.35641,-2.469444 -0.35641,-2.469445 -0.73586,-2.961282 -0.73585,-2.961282 -0.99354,-2.441431 -0.99355,-2.441432 -1.17574,-2.00562 -1.17574,-2.00562 -2.46944,-2.470439 -2.46945,-2.470438 -2.36824,-1.161239 -2.36825,-1.161238 -2.39425,-0.507337 -2.39426,-0.507336 -2.68781,-0.0061 -2.68782,-0.0061 -3.014204,0.525632 -3.014202,0.525633 -3.293814,1.091109 -3.293814,1.091109 -4.233334,2.05448 -4.233333,2.05448 -3.175,2.003849 -3.175,2.00385 -3.439584,2.454802 -3.439583,2.454802 v 0.352829 0.352829 l 4.674306,4.676005 4.674305,4.676004 3.710272,4.2156 3.710271,4.215599 3.643142,4.521758 3.643141,4.521757 0.407698,0.113351 0.407699,0.113352 7.05842,1.103595 7.058424,1.103595 5.46519,1.224015 5.46519,1.224015 4.23333,1.201803 4.23333,1.201802 0.70081,-0.05063 0.70081,-0.05063 z m -80.008379,-2.65542 2.315358,-0.715141 1.514163,-1.148675 1.514162,-1.148675 1.112514,-1.652905 1.112513,-1.652905 0.424256,-2.392307 0.424255,-2.392306 -0.377595,-2.024852 -0.377594,-2.024852 -0.938648,-1.916968 -0.938647,-1.916968 -1.01385,-1.229976 -1.01385,-1.229976 -1.676122,-0.813125 -1.676121,-0.813125 -2.469445,0.03956 -2.469444,0.03956 -1.5875,0.625942 -1.5875,0.625941 -1.45885,0.987009 -1.458851,0.987008 -1.112561,1.679661 -1.11256,1.67966 -0.556696,1.914967 -0.556696,1.914967 0.15678,2.854454 0.15678,2.854453 0.798599,1.548238 0.798599,1.548238 1.66246,1.66246 1.66246,1.66246 1.568601,0.553813 1.568602,0.553812 1.638534,0.02785 1.638535,0.02785 z M 38.358883,50.649805 37.91791,50.467808 v -0.814803 -0.814803 l 0.529167,-0.20306 0.529167,-0.20306 0.54825,0.210383 0.54825,0.210383 -0.107278,0.922056 -0.107278,0.922057 -0.529167,0.06742 -0.529166,0.06742 z m 38.364583,2.35852 V 52.667822 L 75.598993,51.33263 74.474519,49.997438 73.056097,48.498132 71.637675,46.998827 h -0.217754 -0.217754 l -1.649072,2.603215 -1.649073,2.603215 v 0.376067 0.376067 l 1.675694,0.13213 1.675695,0.132131 2.734028,0.06359 2.734027,0.06359 z M 62.569928,37.607408 60.339682,35.357159 H 59.882811 59.42594 l -0.573507,1.202657 -0.573507,1.202657 0.196116,0.511071 0.196116,0.511071 1.00046,0.229051 1.000459,0.229051 1.763889,0.484241 1.763889,0.48424 0.30016,-0.176771 0.30016,-0.176771 z M 9.166521,37.12666 l 4.233333,-1.672888 5.468056,-1.798048 5.468056,-1.798049 4.209153,-1.262062 4.209153,-1.262061 6.871644,-1.768518 6.871644,-1.768517 0.564817,-0.302281 0.564817,-0.302281 0.656199,-0.725092 0.656199,-0.725092 -0.204068,-0.531794 -0.204068,-0.531793 -0.908763,-0.228085 -0.908764,-0.228085 -4.662592,0.769104 -4.662593,0.769103 -4.945166,1.182953 -4.945165,1.182952 -4.264449,1.425555 -4.26445,1.425555 -3.843163,1.628906 -3.843163,1.628905 -4.0073366,2.161525 -4.0073362,2.161525 -0.5293689,0.807919 -0.5293689,0.807919 0.2148862,0.559984 0.2148861,0.559984 1.1468189,-0.247177 1.146819,-0.247178 z m 152.403849,66.05828 -1.05448,-0.55814 -1.94413,-0.20912 -1.94413,-0.20913 v -0.52917 -0.52916 l 1.16128,-0.11165 1.16128,-0.11164 1.72199,0.57195 1.72199,0.57195 0.43553,0.52478 0.43553,0.52479 -0.32019,0.31134 -0.32018,0.31134 z m 6.11769,-1.3674 -1.53543,-0.87032 -2.20513,-1.078405 -2.20513,-1.078407 -2.79489,-0.191567 -2.7949,-0.191566 -2.47824,0.812462 -2.47824,0.812463 -0.54743,-0.454326 -0.54742,-0.454325 v -0.677473 -0.677474 l 1.60028,-1.710832 1.60028,-1.710832 1.8393,-0.797239 1.8393,-0.797238 1.94028,-9.78e-4 1.94028,-9.77e-4 2.11666,1.081296 2.11667,1.081297 1.54589,1.333843 1.5459,1.333843 1.01174,1.396674 1.01175,1.396671 v 0.96766 0.96766 l -0.49305,0.1892 -0.49304,0.1892 z m -147.520586,-5.588153 -1.346269,-0.48014 -0.732026,-0.650903 -0.732026,-0.650904 -0.647985,-1.411111 -0.647985,-1.411111 -0.0077,-1.516825 -0.0077,-1.516824 0.505905,-0.978314 0.505906,-0.978314 0.567379,-0.470883 0.567379,-0.470882 0.383222,0.383222 0.383222,0.383222 -0.750951,0.954679 -0.750951,0.95468 v 1.574804 1.574805 l 0.577713,1.217439 0.577713,1.21744 1.348511,0.687959 1.348511,0.687959 h 1.219923 1.219923 l 0.55802,0.214132 0.558019,0.214132 v 0.491423 0.491424 l -1.675694,-0.01548 -1.675695,-0.01548 z m 2.228214,-5.833733 v -0.700397 l 1.917215,-1.504464 1.917216,-1.504464 1.979282,-1.199251 1.979283,-1.19925 3.423641,-1.164307 3.423641,-1.164307 3.175,-0.416835 3.175,-0.416835 4.056944,0.200226 4.056945,0.200225 3.053155,0.547632 3.053155,0.547632 0.973041,0.36995 0.973041,0.369949 -0.396051,0.396052 -0.396051,0.396051 L 55.13,83.479517 51.499855,82.805773 h -6.173611 -6.173611 l -2.293056,0.622875 -2.293056,0.622874 -1.940277,0.764371 -1.940278,0.764371 -2.201021,1.322545 -2.201021,1.322545 -1.702239,1.435349 -1.702238,1.435348 h -0.241879 -0.24188 z m 20.70668,-0.269742 -0.14885,-0.264583 -0.621934,-2.583786 -0.621935,-2.583786 0.341582,-0.341582 0.341582,-0.341582 0.356878,0.455923 0.356877,0.455924 0.580671,2.365557 0.580671,2.365557 v 0.368471 0.36847 h -0.508346 -0.508347 z m -4.680356,-0.908248 -0.22738,-0.592541 0.306006,-1.674953 0.306005,-1.674953 h 0.525773 0.525772 l -0.110318,1.763889 -0.110318,1.763889 -0.494081,0.503605 -0.49408,0.503605 z m 7.127813,-2.58923 -1.281915,-1.645394 v -0.294883 -0.294884 h 0.645753 0.645753 l 1.139465,1.586677 1.139465,1.586676 -0.218538,0.353602 -0.218537,0.353601 H 47.116506 46.83174 Z m 111.077805,-0.07021 -1.41111,-0.641776 -0.49026,-0.918686 -0.49026,-0.918687 0.21341,-1.315074 0.21341,-1.315073 1.01394,-1.261856 1.01395,-1.261855 1.401,-0.783353 1.40101,-0.783353 1.21329,-0.09859 1.21329,-0.09859 v 0.490228 0.490229 l -1.46764,0.433344 -1.46765,0.433343 -1.09532,0.779935 -1.09531,0.779935 -0.52385,1.013002 -0.52384,1.013002 v 0.873859 0.873859 l 0.97014,0.770696 0.97014,0.770697 2.57849,-0.190298 2.5785,-0.190299 -0.13691,0.415346 -0.13691,0.415345 -0.85409,0.435771 -0.85408,0.435772 -1.41111,-0.0025 -1.41111,-0.0025 z m 18.97546,-1.039975 -1.83843,-0.595809 -1.60665,-1.143135 -1.60665,-1.143135 -1.40561,-2.174753 -1.40562,-2.174753 v -0.650862 -0.650863 h 0.36919 0.36919 l 0.60095,1.102521 0.60095,1.102521 1.26208,1.631507 1.26208,1.631507 1.73653,0.940515 1.73653,0.940515 1.32682,0.246005 1.32681,0.246005 0.21769,0.352227 0.21769,0.352228 -0.48617,0.307934 -0.48617,0.307934 -0.17639,-0.01615 -0.17639,-0.01615 z m 4.69053,-1.519794 -1.38123,-0.323945 -2.24025,-1.102873 -2.24026,-1.102873 -2.24963,-2.38473 -2.24963,-2.38473 -0.70167,-1.885655 -0.70167,-1.885654 -0.2437,-1.79695 -0.24371,-1.79695 0.40736,-2.259995 0.40736,-2.259995 0.92421,-1.70373 0.92421,-1.703731 2.04382,-1.892222 2.04383,-1.892222 2.55915,-1.249272 2.55916,-1.249271 1.4993,-0.226947 1.49931,-0.226948 v 0.503582 0.503581 l -2.55764,0.752755 -2.55764,0.752754 -2.53708,1.782113 -2.53708,1.782112 -1.04987,1.525942 -1.04988,1.525943 -0.60192,1.840268 -0.60192,1.840267 0.15922,2.900847 0.15921,2.900846 0.81341,1.5875 0.81341,1.587501 1.02524,1.302977 1.02524,1.302977 2.10129,1.403189 2.1013,1.40319 1.14805,0.360795 1.14805,0.360795 1.4993,0.386219 1.49931,0.38622 v 0.515569 0.515569 l -0.61736,-0.03544 -0.61736,-0.03544 z M 34.354108,74.41791 33.15541,73.61477 32.008882,71.908597 30.862355,70.202423 V 69.536737 68.87105 h 0.505393 0.505394 l 0.212573,0.669759 0.212574,0.669759 1.067795,1.474048 1.067795,1.474048 1.208246,0.504838 1.208247,0.504837 1.503908,-0.337879 1.503908,-0.33788 0.649795,-0.802401 0.649794,-0.802401 -0.227047,-1.420169 -0.227048,-1.42017 -0.833693,-1.411111 -0.833693,-1.411111 -1.264749,-1.215732 -1.264748,-1.215731 v -0.459963 -0.459964 h 0.58379 0.583789 l 1.359879,1.42953 1.359879,1.42953 0.869723,1.716315 0.869723,1.716316 0.196958,1.352072 0.196958,1.352071 -0.45785,0.871356 -0.45785,0.871356 -1.193558,0.804339 -1.193558,0.804338 h -1.835938 -1.835938 z m -21.659809,-2.604747 -0.705556,-0.188375 -0.335139,-0.318536 -0.335139,-0.318535 0.335139,-0.334594 0.335139,-0.334595 2.116667,0.291504 2.116667,0.291504 2.217207,-0.310001 2.217207,-0.310001 1.679258,-0.850944 1.679257,-0.850944 1.856112,-1.668805 1.856113,-1.668804 0.403339,0.403339 0.403339,0.40334 -1.944426,1.883325 -1.944427,1.883326 -2.094823,1.007779 -2.094823,1.007779 -3.527778,0.08531 -3.527778,0.08531 z m 164.942331,-2.037618 -0.42046,-0.506616 0.38967,-0.728106 0.38967,-0.728106 h 0.50435 0.50434 l 0.38967,0.728106 0.38967,0.728106 -0.42045,0.506616 -0.42046,0.506616 h -0.44277 -0.44278 z M 13.288813,66.036769 11.413882,65.370706 9.9720401,64.310363 8.5301982,63.250021 7.3338524,61.567335 6.1375067,59.884649 l -0.73231,-2.410972 -0.73231,-2.410971 0.1553468,-3.061801 0.1553469,-3.0618 1.0078003,-2.116667 1.0078003,-2.116667 2.1702515,-2.17758 2.1702515,-2.177579 2.067867,-0.601145 2.067866,-0.601145 2.259954,0.211037 2.259953,0.211038 1.90667,0.872902 1.90667,0.872903 1.895233,1.792432 1.895233,1.792433 1.059662,2.019019 1.059661,2.019019 0.440573,1.893039 0.440574,1.893039 -0.177639,2.212999 -0.177638,2.212999 -0.901032,1.968113 -0.901031,1.968113 -1.70037,1.826751 -1.700369,1.826751 -2.116666,1.006459 -2.116667,1.006459 -2.822222,-0.0255 -2.822223,-0.0255 z m 9.241149,-1.378665 1.590719,-0.770054 1.485399,-1.47725 1.485398,-1.47725 0.999264,-2.124766 0.999265,-2.124767 0.221271,-1.614346 0.22127,-1.614347 -0.395188,-1.8427 -0.395189,-1.8427 -0.900259,-1.902993 -0.90026,-1.902993 -1.576329,-1.621923 -1.576328,-1.621923 -2.285144,-1.069348 -2.285144,-1.069347 -2.395651,-0.015 -2.395652,-0.015 -1.572108,0.70121 -1.572108,0.70121 -1.7003694,1.828213 -1.7003692,1.828212 -0.8673177,1.894472 -0.8673178,1.894472 -0.2091758,2.240015 -0.2091759,2.240014 0.5645713,2.203738 0.5645712,2.203737 0.7153759,1.402252 0.7153758,1.402253 1.2379235,1.237923 1.2379231,1.237924 1.04574,0.540773 1.045739,0.540773 1.859086,0.521632 1.859086,0.521632 2.182195,-0.13185 2.182194,-0.131849 z M 25.306105,53.819197 24.865132,53.642809 V 52.77919 51.915572 l 0.556522,-0.213557 0.556522,-0.213558 0.584026,0.584027 0.584026,0.584026 -0.372001,0.589745 -0.372002,0.589745 -0.327574,0.07979 -0.327574,0.07979 z M 180.47155,49.080438 178.3059,47.634272 177.43274,46.4895 176.55958,45.344729 v -0.584063 -0.584062 h 0.33482 0.33483 l 0.88832,1.164648 0.88832,1.164647 1.94425,1.392992 1.94424,1.392991 0.008,0.617362 0.008,0.617361 h -0.13619 -0.13619 z M 21.427759,8.4578526 20.340224,6.958547 17.663789,3.7937215 14.987354,0.62889612 v -0.31588391 -0.3158839 l 0.970139,0.20685535 0.970139,0.20685536 2.446866,0.40078824 2.446865,0.40078824 0.414248,-0.56651776 0.414248,-0.56651777 0.402081,0 0.402081,0 V 0.65430451 1.229229 l -0.74865,2.7317614 -0.74865,2.7317614 0.909437,1.3383571 0.909437,1.3383571 -0.181607,0.2938461 -0.181607,0.2938461 h -0.448544 -0.448543 z"
       id="path1" /></g></svg>
